<svg xmlns="http://www.w3.org/2000/svg" xmlns:xlink="http://www.w3.org/1999/xlink" contentStyleType="text/css" data-diagram-type="CLASS" height="953px" preserveAspectRatio="none" style="width:908px;height:953px;background:#FFFFFF;" version="1.1" viewBox="0 0 908 953" width="908px" zoomAndPan="magnify"><defs/><g><!--class RepoInfo--><g class="entity" data-entity="RepoInfo" data-source-line="5" data-uid="ent0002" id="entity_RepoInfo"><rect fill="#F1F1F1" height="162.0781" rx="2.5" ry="2.5" style="stroke:#181818;stroke-width:0.5;" width="221.1182" x="635.47" y="7"/><ellipse cx="710.6346" cy="23" fill="#ADD1B2" rx="11" ry="11" style="stroke:#181818;stroke-width:1;"/><path d="M713.6033,28.6406 Q713.0252,28.9375 712.3846,29.0781 Q711.7439,29.2344 711.0408,29.2344 Q708.5408,29.2344 707.2127,27.5938 Q705.9002,25.9375 705.9002,22.8125 Q705.9002,19.6875 707.2127,18.0313 Q708.5408,16.375 711.0408,16.375 Q711.7439,16.375 712.3846,16.5313 Q713.0408,16.6875 713.6033,16.9844 L713.6033,19.7031 Q712.9783,19.125 712.3846,18.8594 Q711.7908,18.5781 711.1658,18.5781 Q709.8221,18.5781 709.1346,19.6563 Q708.4471,20.7188 708.4471,22.8125 Q708.4471,24.9063 709.1346,25.9844 Q709.8221,27.0469 711.1658,27.0469 Q711.7908,27.0469 712.3846,26.7813 Q712.9783,26.5 713.6033,25.9219 L713.6033,28.6406 Z " fill="#000000"/><text fill="#000000" font-family="sans-serif" font-size="14" lengthAdjust="spacing" textLength="62.2891" x="731.1346" y="27.8467">RepoInfo</text><line style="stroke:#181818;stroke-width:0.5;" x1="636.47" x2="855.5882" y1="39" y2="39"/><ellipse cx="646.47" cy="52.6484" fill="none" rx="3" ry="3" style="stroke:#038048;stroke-width:1;"/><text fill="#000000" font-family="sans-serif" font-size="14" lengthAdjust="spacing" textLength="92.9414" x="655.47" y="55.9951">dir_name: str</text><ellipse cx="646.47" cy="68.9453" fill="none" rx="3" ry="3" style="stroke:#038048;stroke-width:1;"/><text fill="#000000" font-family="sans-serif" font-size="14" lengthAdjust="spacing" textLength="124.5098" x="655.47" y="72.292">scan_dir_path: str</text><ellipse cx="646.47" cy="85.2422" fill="none" rx="3" ry="3" style="stroke:#038048;stroke-width:1;"/><text fill="#000000" font-family="sans-serif" font-size="14" lengthAdjust="spacing" textLength="133.7314" x="655.47" y="88.5889">repo_root_path: str</text><ellipse cx="646.47" cy="101.5391" fill="none" rx="3" ry="3" style="stroke:#038048;stroke-width:1;"/><text fill="#000000" font-family="sans-serif" font-size="14" lengthAdjust="spacing" textLength="106.2305" x="655.47" y="104.8857">repo_name: str</text><ellipse cx="646.47" cy="117.8359" fill="none" rx="3" ry="3" style="stroke:#038048;stroke-width:1;"/><text fill="#000000" font-family="sans-serif" font-size="14" lengthAdjust="spacing" textLength="128.4473" x="655.47" y="121.1826">files: Dict[str, File]</text><ellipse cx="646.47" cy="134.1328" fill="none" rx="3" ry="3" style="stroke:#038048;stroke-width:1;"/><text fill="#000000" font-family="sans-serif" font-size="14" lengthAdjust="spacing" textLength="195.1182" x="655.47" y="137.4795">scan_dirs: Dict[str, ScanDir]</text><ellipse cx="646.47" cy="150.4297" fill="none" rx="3" ry="3" style="stroke:#038048;stroke-width:1;"/><text fill="#000000" font-family="sans-serif" font-size="14" lengthAdjust="spacing" textLength="159.4072" x="655.47" y="153.7764">kpis: Dict[str, BaseKPI]</text><line style="stroke:#181818;stroke-width:0.5;" x1="636.47" x2="855.5882" y1="161.0781" y2="161.0781"/></g><!--class ScanDir--><g class="entity" data-entity="ScanDir" data-source-line="15" data-uid="ent0003" id="entity_ScanDir"><rect fill="#F1F1F1" height="162.0781" rx="2.5" ry="2.5" style="stroke:#181818;stroke-width:0.5;" width="221.1182" x="485.47" y="230.08"/><ellipse cx="564.5481" cy="246.08" fill="#ADD1B2" rx="11" ry="11" style="stroke:#181818;stroke-width:1;"/><path d="M567.5169,251.7206 Q566.9388,252.0175 566.2981,252.1581 Q565.6575,252.3144 564.9544,252.3144 Q562.4544,252.3144 561.1263,250.6737 Q559.8138,249.0175 559.8138,245.8925 Q559.8138,242.7675 561.1263,241.1112 Q562.4544,239.455 564.9544,239.455 Q565.6575,239.455 566.2981,239.6112 Q566.9544,239.7675 567.5169,240.0644 L567.5169,242.7831 Q566.8919,242.205 566.2981,241.9394 Q565.7044,241.6581 565.0794,241.6581 Q563.7356,241.6581 563.0481,242.7362 Q562.3606,243.7987 562.3606,245.8925 Q562.3606,247.9862 563.0481,249.0644 Q563.7356,250.1269 565.0794,250.1269 Q565.7044,250.1269 566.2981,249.8612 Q566.8919,249.58 567.5169,249.0019 L567.5169,251.7206 Z " fill="#000000"/><text fill="#000000" font-family="sans-serif" font-size="14" lengthAdjust="spacing" textLength="54.4619" x="585.0481" y="250.9267">ScanDir</text><line style="stroke:#181818;stroke-width:0.5;" x1="486.47" x2="705.5882" y1="262.08" y2="262.08"/><ellipse cx="496.47" cy="275.7284" fill="none" rx="3" ry="3" style="stroke:#038048;stroke-width:1;"/><text fill="#000000" font-family="sans-serif" font-size="14" lengthAdjust="spacing" textLength="92.9414" x="505.47" y="279.0751">dir_name: str</text><ellipse cx="496.47" cy="292.0253" fill="none" rx="3" ry="3" style="stroke:#038048;stroke-width:1;"/><text fill="#000000" font-family="sans-serif" font-size="14" lengthAdjust="spacing" textLength="124.5098" x="505.47" y="295.372">scan_dir_path: str</text><ellipse cx="496.47" cy="308.3222" fill="none" rx="3" ry="3" style="stroke:#038048;stroke-width:1;"/><text fill="#000000" font-family="sans-serif" font-size="14" lengthAdjust="spacing" textLength="133.7314" x="505.47" y="311.6689">repo_root_path: str</text><ellipse cx="496.47" cy="324.6191" fill="none" rx="3" ry="3" style="stroke:#038048;stroke-width:1;"/><text fill="#000000" font-family="sans-serif" font-size="14" lengthAdjust="spacing" textLength="106.2305" x="505.47" y="327.9657">repo_name: str</text><ellipse cx="496.47" cy="340.9159" fill="none" rx="3" ry="3" style="stroke:#038048;stroke-width:1;"/><text fill="#000000" font-family="sans-serif" font-size="14" lengthAdjust="spacing" textLength="128.4473" x="505.47" y="344.2626">files: Dict[str, File]</text><ellipse cx="496.47" cy="357.2128" fill="none" rx="3" ry="3" style="stroke:#038048;stroke-width:1;"/><text fill="#000000" font-family="sans-serif" font-size="14" lengthAdjust="spacing" textLength="195.1182" x="505.47" y="360.5595">scan_dirs: Dict[str, ScanDir]</text><ellipse cx="496.47" cy="373.5097" fill="none" rx="3" ry="3" style="stroke:#038048;stroke-width:1;"/><text fill="#000000" font-family="sans-serif" font-size="14" lengthAdjust="spacing" textLength="159.4072" x="505.47" y="376.8564">kpis: Dict[str, BaseKPI]</text><line style="stroke:#181818;stroke-width:0.5;" x1="486.47" x2="705.5882" y1="384.1581" y2="384.1581"/></g><!--class BaseDir--><g class="entity" data-entity="BaseDir" data-source-line="25" data-uid="ent0004" id="entity_BaseDir"><rect fill="#F1F1F1" height="113.1875" rx="2.5" ry="2.5" style="stroke:#181818;stroke-width:0.5;" width="370.0596" x="7" y="469.15"/><ellipse cx="160.5215" cy="485.15" fill="#ADD1B2" rx="11" ry="11" style="stroke:#181818;stroke-width:1;"/><path d="M163.4902,490.7906 Q162.9121,491.0875 162.2715,491.2281 Q161.6309,491.3844 160.9277,491.3844 Q158.4277,491.3844 157.0996,489.7438 Q155.7871,488.0875 155.7871,484.9625 Q155.7871,481.8375 157.0996,480.1813 Q158.4277,478.525 160.9277,478.525 Q161.6309,478.525 162.2715,478.6813 Q162.9277,478.8375 163.4902,479.1344 L163.4902,481.8531 Q162.8652,481.275 162.2715,481.0094 Q161.6777,480.7281 161.0527,480.7281 Q159.709,480.7281 159.0215,481.8063 Q158.334,482.8688 158.334,484.9625 Q158.334,487.0563 159.0215,488.1344 Q159.709,489.1969 161.0527,489.1969 Q161.6777,489.1969 162.2715,488.9313 Q162.8652,488.65 163.4902,488.0719 L163.4902,490.7906 Z " fill="#000000"/><text fill="#000000" font-family="sans-serif" font-size="14" lengthAdjust="spacing" textLength="54.5166" x="181.0215" y="489.9967">BaseDir</text><line style="stroke:#181818;stroke-width:0.5;" x1="8" x2="376.0596" y1="501.15" y2="501.15"/><ellipse cx="18" cy="514.7984" fill="none" rx="3" ry="3" style="stroke:#038048;stroke-width:1;"/><text fill="#000000" font-family="sans-serif" font-size="14" lengthAdjust="spacing" textLength="92.9414" x="27" y="518.1451">dir_name: str</text><ellipse cx="18" cy="531.0953" fill="none" rx="3" ry="3" style="stroke:#038048;stroke-width:1;"/><text fill="#000000" font-family="sans-serif" font-size="14" lengthAdjust="spacing" textLength="344.0596" x="27" y="534.442">scan_dir_path: str  ' Relative path from repo_root</text><ellipse cx="18" cy="547.3922" fill="none" rx="3" ry="3" style="stroke:#038048;stroke-width:1;"/><text fill="#000000" font-family="sans-serif" font-size="14" lengthAdjust="spacing" textLength="133.7314" x="27" y="550.7389">repo_root_path: str</text><ellipse cx="18" cy="563.6891" fill="none" rx="3" ry="3" style="stroke:#038048;stroke-width:1;"/><text fill="#000000" font-family="sans-serif" font-size="14" lengthAdjust="spacing" textLength="106.2305" x="27" y="567.0357">repo_name: str</text><line style="stroke:#181818;stroke-width:0.5;" x1="8" x2="376.0596" y1="574.3375" y2="574.3375"/></g><!--class File--><g class="entity" data-entity="File" data-source-line="32" data-uid="ent0005" id="entity_File"><rect fill="#F1F1F1" height="113.1875" rx="2.5" ry="2.5" style="stroke:#181818;stroke-width:0.5;" width="320.6699" x="411.69" y="469.15"/><ellipse cx="555.5523" cy="485.15" fill="#ADD1B2" rx="11" ry="11" style="stroke:#181818;stroke-width:1;"/><path d="M558.5211,490.7906 Q557.9429,491.0875 557.3023,491.2281 Q556.6617,491.3844 555.9586,491.3844 Q553.4586,491.3844 552.1304,489.7438 Q550.8179,488.0875 550.8179,484.9625 Q550.8179,481.8375 552.1304,480.1813 Q553.4586,478.525 555.9586,478.525 Q556.6617,478.525 557.3023,478.6813 Q557.9586,478.8375 558.5211,479.1344 L558.5211,481.8531 Q557.8961,481.275 557.3023,481.0094 Q556.7086,480.7281 556.0836,480.7281 Q554.7398,480.7281 554.0523,481.8063 Q553.3648,482.8688 553.3648,484.9625 Q553.3648,487.0563 554.0523,488.1344 Q554.7398,489.1969 556.0836,489.1969 Q556.7086,489.1969 557.3023,488.9313 Q557.8961,488.65 558.5211,488.0719 L558.5211,490.7906 Z " fill="#000000"/><text fill="#000000" font-family="sans-serif" font-size="14" lengthAdjust="spacing" textLength="24.4453" x="576.0523" y="489.9967">File</text><line style="stroke:#181818;stroke-width:0.5;" x1="412.69" x2="731.3599" y1="501.15" y2="501.15"/><ellipse cx="422.69" cy="514.7984" fill="none" rx="3" ry="3" style="stroke:#038048;stroke-width:1;"/><text fill="#000000" font-family="sans-serif" font-size="14" lengthAdjust="spacing" textLength="67.4092" x="431.69" y="518.1451">name: str</text><ellipse cx="422.69" cy="531.0953" fill="none" rx="3" ry="3" style="stroke:#038048;stroke-width:1;"/><text fill="#000000" font-family="sans-serif" font-size="14" lengthAdjust="spacing" textLength="294.6699" x="431.69" y="534.442">file_path: str  ' Relative path from ScanDir</text><ellipse cx="422.69" cy="547.3922" fill="none" rx="3" ry="3" style="stroke:#038048;stroke-width:1;"/><text fill="#000000" font-family="sans-serif" font-size="14" lengthAdjust="spacing" textLength="159.4072" x="431.69" y="550.7389">kpis: Dict[str, BaseKPI]</text><ellipse cx="422.69" cy="563.6891" fill="none" rx="3" ry="3" style="stroke:#038048;stroke-width:1;"/><text fill="#000000" font-family="sans-serif" font-size="14" lengthAdjust="spacing" textLength="169.3604" x="431.69" y="567.0357">functions: List[Function]</text><line style="stroke:#181818;stroke-width:0.5;" x1="412.69" x2="731.3599" y1="574.3375" y2="574.3375"/></g><!--class Function--><g class="entity" data-entity="Function" data-source-line="39" data-uid="ent0006" id="entity_Function"><rect fill="#F1F1F1" height="80.5938" rx="2.5" ry="2.5" style="stroke:#181818;stroke-width:0.5;" width="185.4072" x="448.33" y="659.34"/><ellipse cx="506.6269" cy="675.34" fill="#ADD1B2" rx="11" ry="11" style="stroke:#181818;stroke-width:1;"/><path d="M509.5956,680.9806 Q509.0175,681.2775 508.3769,681.4181 Q507.7363,681.5744 507.0331,681.5744 Q504.5331,681.5744 503.205,679.9338 Q501.8925,678.2775 501.8925,675.1525 Q501.8925,672.0275 503.205,670.3713 Q504.5331,668.715 507.0331,668.715 Q507.7363,668.715 508.3769,668.8713 Q509.0331,669.0275 509.5956,669.3244 L509.5956,672.0431 Q508.9706,671.465 508.3769,671.1994 Q507.7831,670.9181 507.1581,670.9181 Q505.8144,670.9181 505.1269,671.9963 Q504.4394,673.0588 504.4394,675.1525 Q504.4394,677.2463 505.1269,678.3244 Q505.8144,679.3869 507.1581,679.3869 Q507.7831,679.3869 508.3769,679.1213 Q508.9706,678.84 509.5956,678.2619 L509.5956,680.9806 Z " fill="#000000"/><text fill="#000000" font-family="sans-serif" font-size="14" lengthAdjust="spacing" textLength="60.3135" x="527.1269" y="680.1867">Function</text><line style="stroke:#181818;stroke-width:0.5;" x1="449.33" x2="632.7372" y1="691.34" y2="691.34"/><ellipse cx="459.33" cy="704.9884" fill="none" rx="3" ry="3" style="stroke:#038048;stroke-width:1;"/><text fill="#000000" font-family="sans-serif" font-size="14" lengthAdjust="spacing" textLength="67.4092" x="468.33" y="708.3351">name: str</text><ellipse cx="459.33" cy="721.2853" fill="none" rx="3" ry="3" style="stroke:#038048;stroke-width:1;"/><text fill="#000000" font-family="sans-serif" font-size="14" lengthAdjust="spacing" textLength="159.4072" x="468.33" y="724.632">kpis: Dict[str, BaseKPI]</text><line style="stroke:#181818;stroke-width:0.5;" x1="449.33" x2="632.7372" y1="731.9338" y2="731.9338"/></g><!--class BaseKPI--><g class="entity" data-entity="BaseKPI" data-source-line="44" data-uid="ent0007" id="entity_BaseKPI"><rect fill="#F1F1F1" height="129.4844" rx="2.5" ry="2.5" style="stroke:#181818;stroke-width:0.5;" width="256.6787" x="615.69" y="816.94"/><ellipse cx="711.858" cy="832.94" fill="#A9DCDF" rx="11" ry="11" style="stroke:#181818;stroke-width:1;"/><path d="M711.9673,828.2837 L710.8111,833.3619 L713.1392,833.3619 L711.9673,828.2837 Z M710.483,826.0494 L713.4673,826.0494 L716.8267,838.44 L714.3736,838.44 L713.608,835.3775 L710.3267,835.3775 L709.5767,838.44 L707.1392,838.44 L710.483,826.0494 Z " fill="#000000"/><text fill="#000000" font-family="sans-serif" font-size="14" font-style="italic" lengthAdjust="spacing" textLength="55.8428" x="732.358" y="837.7867">BaseKPI</text><line style="stroke:#181818;stroke-width:0.5;" x1="616.69" x2="871.3687" y1="848.94" y2="848.94"/><ellipse cx="626.69" cy="862.5884" fill="none" rx="3" ry="3" style="stroke:#038048;stroke-width:1;"/><text fill="#000000" font-family="sans-serif" font-size="14" lengthAdjust="spacing" textLength="67.4092" x="635.69" y="865.9351">name: str</text><ellipse cx="626.69" cy="878.8853" fill="none" rx="3" ry="3" style="stroke:#038048;stroke-width:1;"/><text fill="#000000" font-family="sans-serif" font-size="14" lengthAdjust="spacing" textLength="74.1426" x="635.69" y="882.232">value: Any</text><ellipse cx="626.69" cy="895.1822" fill="none" rx="3" ry="3" style="stroke:#038048;stroke-width:1;"/><text fill="#000000" font-family="sans-serif" font-size="14" lengthAdjust="spacing" textLength="54.8311" x="635.69" y="898.5289">unit: str</text><ellipse cx="626.69" cy="911.4791" fill="none" rx="3" ry="3" style="stroke:#038048;stroke-width:1;"/><text fill="#000000" font-family="sans-serif" font-size="14" lengthAdjust="spacing" textLength="105.5469" x="635.69" y="914.8257">description: str</text><ellipse cx="626.69" cy="927.7759" fill="none" rx="3" ry="3" style="stroke:#038048;stroke-width:1;"/><text fill="#000000" font-family="sans-serif" font-size="14" lengthAdjust="spacing" textLength="230.6787" x="635.69" y="931.1226">calculation_values: Dict[str, Any]</text><line style="stroke:#181818;stroke-width:0.5;" x1="616.69" x2="871.3687" y1="938.4244" y2="938.4244"/></g><!--link RepoInfo to ScanDir--><g class="link" data-entity-1="RepoInfo" data-entity-2="ScanDir" data-source-line="52" data-uid="lnk8" id="link_RepoInfo_ScanDir"><path codeLine="52" d="M691.45,169.48 C678.13,189.11 673.9816,195.2118 660.6716,214.8418" fill="none" id="RepoInfo-to-ScanDir" style="stroke:#181818;stroke-width:1;"/><polygon fill="none" points="650.57,229.74,665.6377,218.209,655.7056,211.4746,650.57,229.74" style="stroke:#181818;stroke-width:1;"/></g><!--link ScanDir to BaseDir--><g class="link" data-entity-1="ScanDir" data-entity-2="BaseDir" data-source-line="53" data-uid="lnk9" id="link_ScanDir_BaseDir"><path codeLine="53" d="M485.1,370.5 C426.94,401.11 371.9589,430.0472 314.4589,460.3072" fill="none" id="ScanDir-to-BaseDir" style="stroke:#181818;stroke-width:1;"/><polygon fill="none" points="298.53,468.69,317.2531,465.6169,311.6646,454.9976,298.53,468.69" style="stroke:#181818;stroke-width:1;"/></g><!--reverse link ScanDir to File--><g class="link" data-entity-1="ScanDir" data-entity-2="File" data-source-line="54" data-uid="lnk10" id="link_ScanDir_File"><path codeLine="54" d="M585.6132,404.4242 C582.7432,429.8342 580.98,445.41 578.35,468.72" fill="none" id="ScanDir-backto-File" style="stroke:#181818;stroke-width:1;"/><polygon fill="none" points="586.96,392.5,582.3119,398.0132,585.6132,404.4242,590.2613,398.911,586.96,392.5" style="stroke:#181818;stroke-width:1;"/><text fill="#000000" font-family="sans-serif" font-size="13" lengthAdjust="spacing" textLength="26.5713" x="585.03" y="435.2169">files</text><text fill="#000000" font-family="sans-serif" font-size="13" lengthAdjust="spacing" textLength="6.5" x="579.9443" y="412.2108">*</text><text fill="#000000" font-family="sans-serif" font-size="13" lengthAdjust="spacing" textLength="6.5" x="572.7857" y="457.9312">*</text></g><!--reverse link ScanDir to ScanDir--><g class="link" data-entity-1="ScanDir" data-entity-2="ScanDir" data-source-line="55" data-uid="lnk11" id="link_ScanDir_ScanDir"><path codeLine="55" d="M718.6926,292.7554 C739.1326,295.2354 741.59,300.39 741.59,311.12 C741.59,321.84 727.22,328.45 706.78,330.92" fill="none" id="ScanDir-backto-ScanDir" style="stroke:#181818;stroke-width:1;"/><polygon fill="none" points="706.78,291.31,712.2545,296.0036,718.6926,292.7554,713.2181,288.0618,706.78,291.31" style="stroke:#181818;stroke-width:1;"/><text fill="#000000" font-family="sans-serif" font-size="13" lengthAdjust="spacing" textLength="60.6074" x="747.59" y="315.6869">scan_dirs</text><text fill="#000000" font-family="sans-serif" font-size="13" lengthAdjust="spacing" textLength="6.5" x="714.4394" y="286.5465">*</text><text fill="#000000" font-family="sans-serif" font-size="13" lengthAdjust="spacing" textLength="6.5" x="714.4394" y="328.8178">*</text></g><!--reverse link File to Function--><g class="link" data-entity-1="File" data-entity-2="Function" data-source-line="56" data-uid="lnk12" id="link_File_Function"><path codeLine="56" d="M559.8305,594.3695 C555.3405,619.2695 552.29,636.22 548.2,658.88" fill="none" id="File-backto-Function" style="stroke:#181818;stroke-width:1;"/><polygon fill="none" points="561.96,582.56,556.9587,587.7549,559.8305,594.3695,564.8318,589.1746,561.96,582.56" style="stroke:#181818;stroke-width:1;"/><text fill="#000000" font-family="sans-serif" font-size="13" lengthAdjust="spacing" textLength="59.8774" x="558.03" y="625.4069">functions</text><text fill="#000000" font-family="sans-serif" font-size="13" lengthAdjust="spacing" textLength="6.5" x="554.3982" y="602.4735">*</text><text fill="#000000" font-family="sans-serif" font-size="13" lengthAdjust="spacing" textLength="6.5" x="542.9039" y="648.2665">*</text></g><!--link File to BaseKPI--><g class="link" data-entity-1="File" data-entity-2="BaseKPI" data-source-line="57" data-uid="lnk13" id="link_File_BaseKPI"><path codeLine="57" d="M608.07,582.56 C614.19,592.4 620.39,602.62 626.03,612.34 C664.79,679.14 696.8976,755.4332 718.3876,811.0532" fill="none" id="File-to-BaseKPI" style="stroke:#181818;stroke-width:1;"/><polygon fill="#181818" points="720.55,816.65,721.0375,806.8132,718.748,811.986,713.5752,809.6965,720.55,816.65" style="stroke:#181818;stroke-width:1;"/><text fill="#000000" font-family="sans-serif" font-size="13" lengthAdjust="spacing" textLength="26.165" x="690.03" y="704.2069">kpis</text></g><!--link ScanDir to BaseKPI--><g class="link" data-entity-1="ScanDir" data-entity-2="BaseKPI" data-source-line="58" data-uid="lnk14" id="link_ScanDir_BaseKPI"><path codeLine="58" d="M697.93,392.63 C719.11,414.93 738.48,440.87 750.03,469.15 C797.05,584.25 778.6062,727.1266 761.1762,810.6166" fill="none" id="ScanDir-to-BaseKPI" style="stroke:#181818;stroke-width:1;"/><polygon fill="#181818" points="759.95,816.49,765.7048,808.4974,760.9718,811.5955,757.8737,806.8625,759.95,816.49" style="stroke:#181818;stroke-width:1;"/><text fill="#000000" font-family="sans-serif" font-size="13" lengthAdjust="spacing" textLength="26.165" x="780.03" y="625.4069">kpis</text></g><!--link RepoInfo to BaseKPI--><g class="link" data-entity-1="RepoInfo" data-entity-2="BaseKPI" data-source-line="59" data-uid="lnk15" id="link_RepoInfo_BaseKPI"><path codeLine="59" d="M818.8,169.52 C847.18,209 873.03,258.99 873.03,310.12 C873.03,310.12 873.03,310.12 873.03,700.64 C873.03,744.67 851.2477,780.8828 822.7277,812.3728" fill="none" id="RepoInfo-to-BaseKPI" style="stroke:#181818;stroke-width:1;"/><polygon fill="#181818" points="818.7,816.82,827.7064,812.8344,822.0564,813.114,821.7768,807.4641,818.7,816.82" style="stroke:#181818;stroke-width:1;"/><text fill="#000000" font-family="sans-serif" font-size="13" lengthAdjust="spacing" textLength="26.165" x="874.03" y="530.3169">kpis</text></g><!--link Function to BaseKPI--><g class="link" data-entity-1="Function" data-entity-2="BaseKPI" data-source-line="60" data-uid="lnk16" id="link_Function_BaseKPI"><path codeLine="60" d="M585.83,740.37 C611.05,762.74 638.6606,787.2294 667.3406,812.6594" fill="none" id="Function-to-BaseKPI" style="stroke:#181818;stroke-width:1;"/><polygon fill="#181818" points="671.83,816.64,667.7497,807.6761,668.0889,813.3228,662.4422,813.662,671.83,816.64" style="stroke:#181818;stroke-width:1;"/><text fill="#000000" font-family="sans-serif" font-size="13" lengthAdjust="spacing" textLength="26.165" x="638.03" y="783.0069">kpis</text></g><!--SRC=[rLDTIyCm57tFhxZiPNu5nj07-p1Gnc3eGFHnZ9AbAGQpf2JfGDJ_Rf8rMKlBr4UVIiuzzzvpJj8n5CIIVASA9lBfP7g39xTuUetG65RCQavNH5Ac0okG19mTQUS8KK6CWMTMgQKi5NmWWCk2wroI7Sl0MEq1GudCFLeH-vfGxPfohPGTW3lj9HVCP33drAuTT0KB1spQWplL5mVEkGw4juftQlV4i8UdvGPzHUaD-nygzyXVb0ECtKK9OlcUWKUXr6e7oSpldIK9tivXVy_sZtiRioUz-bcrf9OhwGYFtDZreZctWeZGW99JAPAjWmYrS8pJbGQ6x8cetUbElljJBRbDfO8PgddbjoUC4a5hRrV9FBHs5BWfONlwPJ3-dAKmuciCO7F12HnTZ41X7BuX-Gp20niaHCp9YayDXQREb9YScnHpFh0mdgL4Cl0njhJrIYqplLhQqQzz0m00]--></g></svg>